PathFileType	4	(X/Y/Z)	C:/Users/beibeiliu/ov580/test_trc/User2\sequence.8_training_dense_left.trc
DataRate	CameraRate	NumFrames	NumMarkers	Units	OrigDataRate	OrigDataStartFrame	OrigNumFrames
120	120	13	19	mm	120	88	117
Frame#	Time	ThumbCMC			ThumbMCP			ThumbIP			ThumbTip			IndexMCP			IndexPIP			IndexTip			MiddleMCP			MiddlePIP			MiddleTip			RingMCP			RingPIP			RingTip			PinkyMCP			PinkyPIP			PinkyTip			BackHand1			BackHand2			BackHand3	
		X0	Y0	Z0	X1	Y1	Z1	X2	Y2	Z2	X3	Y3	Z3	X4	Y4	Z4	X5	Y5	Z5	X6	Y6	Z6	X7	Y7	Z7	X8	Y8	Z8	X9	Y9	Z9	X10	Y10	Z10	X11	Y11	Z11	X12	Y12	Z12	X13	Y13	Z13	X14	Y14	Z14	X15	Y15	Z15	X16	Y16	Z16	X17	Y17	Z17	X18	Y18	Z18	
87	0.725	-220.318	76.1318	-9.73876	-202.371	106.876	-25.1917	-175.263	119.778	-40.6566	-147.506	120.864	-51.6236	-173.282	59.4181	-80.7637	-149.693	80.0886	-85.033	-133.938	102.198	-62.4837	-171.19	27.8331	-83.642	-152.188	33.7944	-110.673	-127.12	44.958	-128.39	-156.823	8.80272	-62.8465	-143.291	7.9074	-89.7689	-122.855	14.7118	-113.91	-143.842	7.36705	-37.2724	-124.498	-3.86903	-57.9568	-109.727	-9.57322	-75.2019	-181.477	9.58536	-15.4425	-200.844	7.15711	11.8781	-217.104	29.604	-18.3298	
88	0.733333	-231.714	79.1856	-10.9037	-220.593	110.027	-24.8425	-197.362	133.701	-45.9839	-167.972	130.963	-53.2758	-186.383	67.3062	-78.5988	-165.923	97.1431	-86.7078	-153.709	117.418	-67.5877	-173.51	37.1495	-83.6553	-156.695	46.6832	-111.686	-139.964	61.8545	-130.823	-158.473	24.5944	-60.508	-146.753	24.27	-88.1696	-128.777	32.2124	-112.844	-145.094	25.6927	-37.6046	-127.156	20.0228	-56.5983	-109.263	13.5477	-72.9335	-184.185	22.5329	-14.1538	-197.783	15.2396	12.0269	-219.158	35.5676	-19.9996	
89	0.741667	-236.816	78.6668	-9.89535	-229.018	108.756	-26.8582	-208.354	130.15	-48.245	-184.773	135.193	-58.5847	-197.199	68.2985	-81.3483	-179.288	96.7093	-91.0722	-170.35	124.289	-74.2319	-184.271	38.535	-85.7983	-172.003	48.8267	-115.964	-152.391	63.6058	-136.856	-168.614	28.0083	-66.6506	-154.684	25.7532	-93.0224	-142.643	37.0671	-119.295	-149.05	30.5092	-38.8124	-133.047	25.6245	-63.5104	-119.064	22.3257	-86.2084	-184.458	25.4308	-15.3297	-197.935	17.5671	12.647	-224.47	35.018	-18.548	
90	0.75	-243.745	67.8992	-11.0461	-232.954	94.1631	-33.1056	-217.278	117.15	-61.0918	-191.073	115.141	-73.4065	-206.387	48.3995	-85.1084	-190.732	73.2811	-101.007	-178.47	104.846	-85.2567	-196.209	21.8944	-84.4374	-184.571	25.9999	-117.214	-165.942	42.996	-145.123	-178.319	13.8465	-68.8148	-166.116	9.43917	-99.0921	-151.178	18.8197	-129.372	-153.805	15.1873	-48.7732	-144.531	11.387	-70.9182	-132.2	8.029	-92.8753	-192.755	16.4315	-19.673	-198.255	9.83636	9.17488	-231.048	22.7778	-17.5234	
91	0.758333	-249.891	48.9908	-16.387	-243.991	74.1778	-42.8436	-230.554	90.5568	-71.6673	-206.747	88.934	-88.0791	-221.973	22.8485	-94.2866	-206.002	42.999	-109.795	-193.971	73.7722	-101.326	-212.741	-6.37718	-86.0908	-202.311	-6.22503	-124.86	-186.536	5.08418	-151.863	-190.243	-15.3812	-76.8706	-180.386	-19.9368	-101.605	-170.805	-13.4992	-131.855	-168.21	-4.99087	-52.2275	-155.329	-16.104	-78.2916	-145.376	-22.7171	-102.923	-199.857	-5.14175	-23.1986	-205.603	-7.13185	6.54821	-234.762	4.68532	-18.5833	
92	0.766667	-258.168	32.251	-19.4332	-251.78	50.8546	-47.7335	-244.539	62.8547	-84.1547	-222.712	57.7883	-101.343	-242.286	-7.08719	-91.6702	-228.676	12.1559	-117.578	-214.117	39.1366	-113.86	-229.744	-36.0554	-86.5216	-225.263	-39.2329	-122.252	-217.24	-30.5814	-156.146	-208.495	-41.6514	-76.1029	-205.026	-49.9111	-105.872	-202.911	-46.5284	-134.232	-184.583	-32.8717	-58.4374	-179.123	-44.7158	-84.1594	-174.278	-51.4401	-112.147	-209.229	-25.2383	-24.0754	-216.286	-20.6224	8.96982	-243.643	-12.9651	-13.5892	
93	0.775	-267.071	21.3567	-22.6499	-262.905	36.7694	-57.1449	-256.555	45.4736	-87.3899	-242.741	40.9894	-113.522	-272.682	-23.6889	-91.4223	-259.276	-9.64257	-120.001	-237.769	19.5978	-121.953	-264.149	-53.8416	-88.8291	-264.241	-59.8767	-119.986	-254.643	-55.9214	-153.959	-239.863	-63.6158	-78.9233	-242.371	-71.723	-104.055	-244.628	-68.7883	-138.218	-215.751	-55.2614	-63.8077	-215.022	-70.6702	-89.7976	-213.436	-77.7588	-117.879	-234.603	-41.9937	-27.1173	-233.068	-33.1886	3.12228	-263.666	-24.5343	-14.3329	
94	0.783333	-271.652	20.3249	-23.4359	-267.449	40.4774	-58.1946	-262.659	44.7675	-94.7978	-251.359	33.2128	-115.271	-297.655	-17.0011	-94.5377	-281.466	-10.2236	-120.44	-256.322	9.8168	-124.858	-301.939	-48.0968	-86.8102	-308.711	-52.3428	-120.511	-301.077	-52.4517	-155.352	-280.077	-64.8316	-77.9381	-289.804	-71.5535	-103.21	-291.162	-71.5979	-138.881	-252.267	-66.0591	-67.5554	-256.25	-82.6552	-89.5862	-265.709	-89.8031	-117.803	-259.423	-45.7093	-29.7659	-253.345	-42.2988	0.873301	-280.248	-23.3711	-15.641	
95	0.791667	-269.582	31.5785	-23.956	-259.136	50.3211	-54.8376	-256.617	52.4411	-91.8941	-249.787	43.3597	-117.049	-311.279	9.50278	-94.5147	-293.063	13.1648	-120.851	-259.097	19.4181	-125.254	-326.342	-21.0448	-85.0815	-337.843	-17.5753	-113.481	-335.602	-16.9093	-151.272	-312.142	-44.2076	-78.0459	-325.499	-46.3863	-100.84	-331.092	-42.451	-132.514	-282.976	-57.7469	-67.2379	-303.394	-67.9879	-93.9868	-315.667	-67.7228	-115.955	-284.836	-39.1795	-33.7183	-272.036	-33.82	-2.63727	-296.171	-2.83159	-15.6095	
96	0.8	-257.824	44.5241	-21.6422	-244.777	57.472	-52.6263	-237.721	66.5556	-89.959	-241.117	51.0853	-112.986	-305.968	47.3745	-86.0543	-288.313	50.9289	-115.533	-256.441	37.4354	-123.96	-330.196	22.1564	-77.8929	-345.201	31.6195	-109.963	-346.783	37.8106	-140.958	-329.323	-1.61514	-73.7652	-346.227	2.16919	-98.4695	-351.284	8.02527	-128.16	-311.464	-27.3062	-67.8218	-331.871	-29.0187	-89.3544	-346.131	-29.6646	-109.926	-299.44	-15.1487	-33.085	-289.524	-20.1426	-3.36917	-292.204	21.4131	-11.3945	
97	0.808333	-240.201	45.998	-16.638	-222.361	55.6542	-47.2064	-216.804	60.1574	-80.57	-226.708	53.3656	-110.87	-284.178	76.9984	-74.9541	-267.275	73.9987	-109.362	-244.578	50.0813	-119.598	-318.004	61.0504	-70.7485	-327.118	81.4887	-100.648	-327.97	91.5518	-130.674	-326.095	38.1527	-67.7631	-342.148	47.4814	-90.9611	-347.302	59.6805	-119.473	-320.27	6.97433	-63.3871	-341.645	16.47	-82.8276	-358.277	22.8684	-101.417	-302.664	15.3372	-27.6713	-291.983	-1.09737	1.79219	-283.985	39.3539	-9.50293	
98	0.816667	-220.064	41.3481	-12.1308	-199.583	43.319	-43.6571	-196.814	48.4762	-81.5162	-211.367	43.6467	-104.318	-255.722	85.9254	-71.347	-242.714	79.5865	-104.925	-232.224	51.7558	-117.335	-289.123	86.7696	-64.7854	-291.094	106.884	-89.9804	-291.507	119.701	-125.751	-307.929	66.9311	-62.5531	-318.666	82.0325	-82.8385	-319.439	98.0125	-109.117	-313.722	36.4644	-59.175	-330.409	52.6968	-77.0101	-347.033	66.2622	-93.075	-293.786	35.5665	-23.9844	-289.396	16.7812	6.08686	-261.66	49.0657	-1.82274	
99	0.825	-208.377	33.0462	-13.5314	-187.467	28.112	-43.2621	-180.017	26.2802	-76.7814	-194.901	24.4586	-102.595	-227.16	81.3189	-76.0624	-219.484	72.2153	-104.734	-217.789	37.589	-116.129	-258.862	91.2717	-66.5957	-254.569	110.193	-97.8764	-251.866	118.825	-131.467	-283.41	80.3408	-64.3634	-285.207	97.5919	-84.9136	-283.408	111.325	-112.204	-295.439	51.3196	-56.5918	-309.69	68.0004	-75.1203	-319.975	83.653	-91.2945	-279.459	47.8178	-19.6218	-276.697	34.1405	7.91642	-245.615	53.9206	0.282891	
